<svg xmlns="http://www.w3.org/2000/svg" viewBox="0 0 512 512" width="100%" height="100%">
  <rect width="512" height="512" rx="128" fill="#0D1F0D"/>
  <rect x="24" y="24" width="464" height="464" rx="110" fill="url(#safaricomGrad)"/>
  <defs>
    <linearGradient id="safaricomGrad" x1="0%" y1="0%" x2="100%" y2="100%">
      <stop offset="0%" stop-color="#4CAF50" />
      <stop offset="100%" stop-color="#1B5E20" />
    </linearGradient>
  </defs>

  <!-- M-Pesa Shield Outline -->
  <path d="M256 80 L390 130 V240 C390 335 325 410 256 440 C187 410 122 335 122 240 V130 L256 80 Z" fill="#0D1F0D" opacity="0.3"/>
  <path d="M256 96 L374 142 V240 C374 322 316 390 256 418 C196 390 138 322 138 240 V142 L256 96 Z" fill="#FFFFFF"/>

  <!-- Bold M-Pesa "M" with Checkmark Motif -->
  <path d="M185 305 L215 245 L256 285 L325 190" fill="none" stroke="#1B5E20" stroke-width="32" stroke-linecap="round" stroke-linejoin="round"/>
</svg>
